<svg width="32" height="32" viewBox="0 0 32 32" fill="none" xmlns="http://www.w3.org/2000/svg">
<path d="M14.8928 5.5772C15.1376 4.96975 15.7301 4.57143 16.389 4.57143H26.7299C27.8699 4.57143 28.6494 5.71467 28.226 6.76565L20.3072 26.4228C20.0625 27.0302 19.4699 27.4286 18.811 27.4286H8.47013C7.33013 27.4286 6.5506 26.2853 6.97399 25.2343L14.8928 5.5772Z" fill="url(#paint0_linear_11611_33178)"/>
<path d="M10.5143 18.2857C14.3014 18.2857 17.3714 15.2157 17.3714 11.4286C17.3714 7.64147 14.3014 4.57143 10.5143 4.57143C6.72718 4.57143 3.65714 7.64147 3.65714 11.4286C3.65714 15.2157 6.72718 18.2857 10.5143 18.2857Z" fill="#0A33FF"/>
<path d="M17.3714 11.4286C17.3714 15.2157 14.3014 18.2857 10.5143 18.2857C10.2691 18.2857 10.027 18.2729 9.78851 18.2478L14.7182 6.0108C16.3326 7.26535 17.3714 9.22565 17.3714 11.4286Z" fill="url(#paint1_linear_11611_33178)"/>
<defs>
<linearGradient id="paint0_linear_11611_33178" x1="21.8596" y1="4.57143" x2="13.7789" y2="27.4564" gradientUnits="userSpaceOnUse">
<stop stop-color="#FFD60A"/>
<stop offset="1" stop-color="#F0BA09"/>
</linearGradient>
<linearGradient id="paint1_linear_11611_33178" x1="14.6682" y1="6.01925" x2="9.77072" y2="18.2259" gradientUnits="userSpaceOnUse">
<stop stop-color="#051A80"/>
<stop offset="1" stop-color="#0A33FF"/>
</linearGradient>
</defs>
</svg>
