<svg width="1120" height="1000" viewBox="0 0 1120 1000" fill="none" xmlns="http://www.w3.org/2000/svg">
<path d="M1119.75 500C1119.75 775.978 869.169 999.75 560 999.75C250.831 999.75 0.25 775.978 0.25 500C0.25 224.022 250.831 0.25 560 0.25C869.169 0.25 1119.75 224.022 1119.75 500ZM1032.25 500C1032.25 732.831 820.844 921.625 560 921.625C299.156 921.625 87.75 732.831 87.75 500C87.75 267.169 299.156 78.375 560 78.375C820.844 78.375 1032.25 267.169 1032.25 500ZM560 922.125C821.065 922.125 1032.75 733.159 1032.75 500C1032.75 266.841 821.065 77.875 560 77.875C298.935 77.875 87.25 266.841 87.25 500C87.25 733.159 298.935 922.125 560 922.125ZM944.75 500C944.75 689.684 772.519 843.5 560 843.5C347.481 843.5 175.25 689.684 175.25 500C175.25 310.316 347.481 156.5 560 156.5C772.519 156.5 944.75 310.316 944.75 500ZM560 844C772.74 844 945.25 690.012 945.25 500C945.25 309.988 772.74 156 560 156C347.26 156 174.75 309.988 174.75 500C174.75 690.012 347.26 844 560 844ZM857.25 500C857.25 646.537 724.194 765.375 560 765.375C395.806 765.375 262.75 646.537 262.75 500C262.75 353.463 395.806 234.625 560 234.625C724.194 234.625 857.25 353.463 857.25 500ZM560 765.875C724.415 765.875 857.75 646.865 857.75 500C857.75 353.135 724.415 234.125 560 234.125C395.585 234.125 262.25 353.135 262.25 500C262.25 646.865 395.585 765.875 560 765.875ZM769.75 500C769.75 603.389 675.869 687.25 560 687.25C444.131 687.25 350.25 603.389 350.25 500C350.25 396.611 444.131 312.75 560 312.75C675.869 312.75 769.75 396.611 769.75 500ZM560 687.75C676.09 687.75 770.25 603.717 770.25 500C770.25 396.283 676.09 312.25 560 312.25C443.91 312.25 349.75 396.283 349.75 500C349.75 603.717 443.91 687.75 560 687.75ZM682.25 500C682.25 560.242 627.544 609.125 560 609.125C492.456 609.125 437.75 560.242 437.75 500C437.75 439.758 492.456 390.875 560 390.875C627.544 390.875 682.25 439.758 682.25 500ZM560 609.625C627.766 609.625 682.75 560.57 682.75 500C682.75 439.43 627.766 390.375 560 390.375C492.234 390.375 437.25 439.43 437.25 500C437.25 560.57 492.234 609.625 560 609.625ZM594.75 500C594.75 517.095 579.219 531 560 531C540.781 531 525.25 517.095 525.25 500C525.25 482.905 540.781 469 560 469C579.219 469 594.75 482.905 594.75 500ZM560 531.5C579.441 531.5 595.25 517.423 595.25 500C595.25 482.577 579.441 468.5 560 468.5C540.559 468.5 524.75 482.577 524.75 500C524.75 517.423 540.559 531.5 560 531.5Z" stroke="url(#paint0_radial_11962_32036)" stroke-opacity="0.4" stroke-width="0.5"/>
<defs>
<radialGradient id="paint0_radial_11962_32036" cx="0" cy="0" r="1" gradientUnits="userSpaceOnUse" gradientTransform="translate(560 500) rotate(90) scale(500 560)">
<stop stop-color="white" stop-opacity="0.8"/>
<stop offset="1" stop-color="white" stop-opacity="0.1"/>
</radialGradient>
</defs>
</svg>
