<svg width="160" height="56" viewBox="0 0 160 56" fill="none" xmlns="http://www.w3.org/2000/svg">
<g clip-path="url(#clip0_11177_31241)">
<path d="M66.9767 47.5844L68.9098 46.8213L68.6576 47.4148L66.8926 48.0931L66.9767 47.5844ZM60.3368 46.6518L60.757 45.6344L61.6816 46.0583L62.0177 45.2952L63.0264 45.8039L62.6062 46.8213L61.6816 46.3974L61.3454 47.1604L60.3368 46.6518ZM42.0141 46.6518L42.4344 45.6344L43.3589 46.0583L43.6951 45.2952L44.7037 45.8039L44.2834 46.8213L43.3589 46.3974L43.0227 47.1604L42.0141 46.6518ZM16.2951 46.6518L16.7154 45.6344L17.6399 46.0583L17.9761 45.2952L18.9847 45.8039L18.5644 46.8213L17.6399 46.3974L17.3037 47.1604L16.2951 46.6518ZM95.6374 46.2278L96.0576 45.2952L96.9822 45.7191L96.646 46.6518L95.6374 46.2278ZM67.3129 46.2278L67.7331 45.2952L68.6576 45.7191L68.3214 46.6518L67.3129 46.2278ZM87.2325 46.2278L87.6527 45.2952L88.5773 45.7191L88.2411 46.6518L87.2325 46.2278ZM32.4325 46.0583L34.3657 45.2952L34.1135 45.8887L32.3485 46.567L32.4325 46.0583ZM70.8429 46.2278C70.5908 46.0583 70.3387 45.8887 70.1706 45.7191L70.5068 44.9561C70.5908 45.0409 70.7589 45.1257 70.8429 45.1257C70.9269 45.1257 71.0951 45.2105 71.1791 45.2105C71.4313 45.2105 71.5994 45.1257 71.8516 45.0409C72.1037 44.9561 72.2718 44.7865 72.3558 44.617H72.1036H71.9356H71.8516C71.5994 44.617 71.4312 44.5322 71.2631 44.3626C71.095 44.1931 71.0951 44.0235 71.0951 43.7691C71.0951 43.5996 71.0951 43.5148 71.1791 43.3452C71.1791 43.1757 71.2631 43.0061 71.2631 42.9213C71.3472 42.7518 71.3473 42.5822 71.4313 42.4126C71.5154 42.2431 71.5153 42.0735 71.5994 41.9887C72.0196 41.9887 72.4399 42.1583 72.7761 42.4126C73.0282 42.667 73.1963 43.0061 73.1963 43.3452H74.7933H76.3061C76.4742 43.3452 76.6424 43.3452 76.8105 43.3452C76.9786 43.3452 77.1467 43.3452 77.2307 43.2605C77.3988 43.2605 77.5669 43.1757 77.735 43.1757C77.9031 43.0909 78.0712 43.0061 78.2393 43.0061C78.1552 43.0061 78.0711 42.9213 77.9871 42.9213C77.903 42.9213 77.8191 42.8365 77.651 42.8365C77.4829 42.8365 77.4828 42.7518 77.3147 42.7518C77.2307 42.7518 77.1466 42.7518 77.1466 42.7518C77.0625 42.7518 76.9785 42.8365 76.8945 42.8365C76.8104 42.9213 76.7263 43.0061 76.7263 43.1757L75.8858 42.667C75.9699 42.4974 76.054 42.2431 76.138 42.0735C76.2221 41.9039 76.3062 41.8192 76.3902 41.7344C76.4743 41.6496 76.5583 41.5648 76.6423 41.5648C76.7264 41.5648 76.8945 41.48 76.9785 41.48C77.2307 41.48 77.3987 41.48 77.5668 41.5648C77.819 41.6496 77.9871 41.7344 78.2393 41.8192C78.4914 41.9039 78.7436 41.9887 79.0798 42.0735C79.4159 42.1583 79.7521 42.2431 80.0883 42.2431L79.7522 43.5148C79.5 43.5148 79.2478 43.5148 79.0798 43.5996C78.8276 43.6844 78.5754 43.7692 78.4073 43.9387C78.1552 44.1083 77.9871 44.1931 77.819 44.2778C77.6509 44.3626 77.4828 44.4474 77.3147 44.5322C77.1466 44.617 76.8944 44.617 76.7263 44.7018C76.3901 44.7018 76.138 44.7865 75.8018 44.7865H72.9441C72.8601 45.0409 72.7761 45.2105 72.692 45.4648C72.608 45.6344 72.4399 45.8887 72.2718 46.0583C72.1037 46.2279 71.9356 46.3974 71.7675 46.4822C71.5994 46.567 71.3472 46.6518 71.0951 46.6518C71.2632 46.3974 71.011 46.3126 70.8429 46.2278ZM45.6282 46.2278C45.376 46.0583 45.1239 45.8887 44.9558 45.7191L45.2921 44.9561C45.3761 45.0409 45.5441 45.1257 45.6282 45.1257C45.7122 45.1257 45.8803 45.2105 45.9644 45.2105C46.2165 45.2105 46.4687 45.1257 46.6368 45.0409C46.889 44.9561 47.057 44.7018 47.2251 44.5322C47.1411 44.617 47.0571 44.617 46.973 44.617C46.889 44.617 46.8049 44.617 46.7209 44.617C46.6368 44.617 46.4687 44.617 46.3846 44.5322C46.3006 44.5322 46.2166 44.4474 46.1326 44.3626C46.0485 44.2779 45.9644 44.1931 45.9644 44.1083C45.9644 44.0235 45.8804 43.9387 45.8804 43.7691C45.8804 43.5996 45.8803 43.5148 45.9644 43.3452C45.9644 43.1757 46.0485 43.0061 46.1326 42.9213C46.2166 42.7518 46.2166 42.5822 46.3006 42.4974C46.3847 42.4126 46.4687 42.1583 46.4687 42.0735C46.7208 42.0735 47.057 42.1583 47.3092 42.3278C47.4773 42.4126 47.6454 42.5822 47.8135 42.7518C47.8976 42.9213 47.9816 43.0909 48.0656 43.3452C48.1497 43.5996 48.1497 43.7691 48.1497 44.0235C48.1497 44.3626 48.0656 44.617 47.9816 44.9561C47.8975 45.2105 47.7294 45.5496 47.5613 45.8039C47.3932 46.0583 47.2252 46.2278 46.973 46.3974C46.7209 46.567 46.4688 46.6518 46.1326 46.6518C45.9645 46.3974 45.7963 46.3126 45.6282 46.2278ZM89.5859 46.2278C89.3337 46.0583 89.0816 45.9735 88.9135 45.7191L89.2497 44.9561C89.3337 45.0409 89.5018 45.1257 89.5859 45.1257C89.6699 45.1257 89.8381 45.2105 89.9221 45.2105C90.0902 45.2105 90.2583 45.2105 90.4264 45.1257C90.5945 45.0409 90.7626 44.9561 90.8466 44.8713C91.0147 44.7865 91.0988 44.617 91.1828 44.4474C91.2669 44.2778 91.3509 44.1083 91.4349 43.9387C91.1828 43.5996 91.0987 43.2605 91.0147 42.9213L92.0233 42.2431C92.0233 42.5822 92.1915 42.8365 92.3595 43.0909C92.5276 43.2605 92.7797 43.43 92.9478 43.43H93.9564H95.4693C95.6374 43.43 95.8055 43.43 95.9736 43.43C96.1417 43.43 96.3098 43.43 96.4779 43.3452C96.646 43.3452 96.8141 43.2605 96.9822 43.2605C97.1503 43.1757 97.3184 43.1757 97.4025 43.0909L96.8981 42.9213L96.562 42.8365C96.478 42.8365 96.3939 42.8365 96.3098 42.8365C96.2258 42.8365 96.1417 42.9213 96.0576 42.9213C95.9736 43.0061 95.8896 43.0909 95.8896 43.2605L95.0491 42.7518C95.1331 42.5822 95.2172 42.3278 95.3013 42.1583C95.3853 41.9887 95.4693 41.9039 95.5534 41.8192C95.6374 41.7344 95.7215 41.6496 95.8055 41.6496C95.8896 41.6496 96.0577 41.5648 96.1418 41.5648C96.3099 41.5648 96.562 41.5648 96.7301 41.6496C96.8982 41.7344 97.1503 41.8191 97.4025 41.9039C97.6546 41.9887 97.9068 42.0735 98.243 42.1583C98.5792 42.2431 98.9153 42.3278 99.2515 42.4126L98.8313 43.5996H100.848H103.034L102.698 41.9039L103.874 41.48C103.874 41.6496 103.958 41.8192 103.958 41.9887C103.958 42.1583 104.042 42.3278 104.042 42.5822C104.042 42.8365 104.126 42.9213 104.126 43.0909C104.126 43.2605 104.126 43.3452 104.126 43.5148C104.126 43.7692 104.042 44.0235 103.958 44.1931C103.874 44.3626 103.706 44.5322 103.538 44.617C103.37 44.7018 103.118 44.7865 102.95 44.7865C102.698 44.7865 102.445 44.8713 102.193 44.8713H99.5877C99.1675 44.8713 98.8313 44.7865 98.4951 44.7018C98.1589 44.5322 97.9068 44.2778 97.8227 44.0235C97.6546 44.1931 97.5706 44.2779 97.4025 44.3626C97.2344 44.4474 97.0662 44.617 96.8981 44.617C96.646 44.7018 96.3939 44.7865 96.1418 44.7865C95.8056 44.8713 95.4693 44.8713 95.1331 44.8713H92.8638C92.6957 44.8713 92.5276 44.8713 92.4436 44.8713C92.2755 44.8713 92.1914 44.7865 92.1074 44.7865C92.0233 45.0409 91.9392 45.2105 91.8552 45.4648C91.7711 45.7191 91.603 45.8887 91.4349 46.0583C91.2668 46.2279 91.0988 46.3974 90.8466 46.4822C90.5945 46.567 90.3423 46.6518 90.0902 46.6518C89.9221 46.3974 89.754 46.3126 89.5859 46.2278ZM48.654 46.2278C48.4019 46.0583 48.1497 45.9735 47.9816 45.7191L48.3178 44.9561C48.4019 45.0409 48.57 45.1257 48.654 45.1257C48.7381 45.2105 48.9061 45.2105 48.9901 45.2105C49.2423 45.2105 49.4945 45.1257 49.6626 44.9561C49.9147 44.7865 50.1669 44.4474 50.335 44.1931C50.1669 43.9387 49.9987 43.5996 49.7466 43.43L50.335 42.2431C50.5872 42.4974 50.8392 42.7518 51.0073 43.0061C51.1754 43.2605 51.2595 43.5996 51.2595 43.9387C51.2595 44.1931 51.1754 44.4474 51.0914 44.7018C51.0073 44.9561 50.8392 45.2952 50.6711 45.4648C50.503 45.7191 50.2509 45.8887 49.9988 46.0583C49.7466 46.2279 49.4104 46.3126 49.1583 46.3126C48.9902 46.3974 48.8221 46.3126 48.654 46.2278ZM12.0085 46.2278C11.8404 46.1431 11.6724 46.0583 11.5043 45.9735C11.3362 45.8887 11.2521 45.7192 11.1681 45.5496C11.084 45.38 11 45.1257 11 44.8713C11 44.7018 11 44.5322 11.084 44.3626C11.084 44.1931 11.1681 44.0235 11.2522 43.8539C11.3362 43.6844 11.3362 43.5148 11.4202 43.3452C11.5043 43.1757 11.5043 43.0061 11.5883 42.8365L12.2607 43.2605C12.2607 43.3452 12.1767 43.43 12.1767 43.5148C12.1767 43.5996 12.0927 43.6844 12.0927 43.7691C12.0927 43.8539 12.0085 43.9387 12.0085 44.0235C12.0085 44.1083 12.0085 44.1931 12.0085 44.2778C12.0085 44.3626 12.0086 44.4474 12.0927 44.5322L12.2607 44.7018C12.3448 44.7865 12.4289 44.7865 12.5129 44.7865C12.597 44.7865 12.681 44.7865 12.765 44.7865C12.8491 44.7865 12.9331 44.7865 13.0172 44.7865C13.1012 44.7865 13.2694 44.7865 13.3534 44.7018C13.4375 44.7018 13.6055 44.617 13.6895 44.617C13.7736 44.617 13.8577 44.5322 13.9417 44.5322L13.5215 42.667L14.53 42.1583C14.53 42.3278 14.6142 42.4974 14.6142 42.667C14.6142 42.8365 14.6982 43.0061 14.6982 43.0909H16.4632H18.6484L18.3122 41.3952L19.4889 40.9713C19.4889 41.1409 19.573 41.3105 19.573 41.48C19.573 41.6496 19.6571 41.8191 19.6571 42.0735C19.6571 42.3278 19.7411 42.4126 19.7411 42.5822C19.7411 42.7518 19.7411 42.8365 19.7411 43.0061C19.7411 43.2605 19.657 43.5148 19.573 43.6844C19.4889 43.8539 19.3208 44.0235 19.1527 44.1083C18.9846 44.1931 18.7325 44.2778 18.5644 44.2778C18.3123 44.2778 18.0601 44.3626 17.808 44.3626H15.4546C15.2865 44.3626 15.2025 44.3626 15.0344 44.3626C14.9503 44.3626 14.8663 44.2778 14.7822 44.1931V44.4474C14.7822 44.7018 14.6982 44.8713 14.6142 45.1257C14.4461 45.2952 14.2779 45.4648 14.1098 45.6344C13.8576 45.8039 13.6896 45.8887 13.4374 45.9735C13.1853 46.0583 12.9331 46.0583 12.681 46.0583C12.3448 46.2279 12.1766 46.2278 12.0085 46.2278ZM20.2454 44.4474C20.4135 44.4474 20.5816 44.3626 20.7497 44.3626C20.9178 44.3626 21.0858 44.2778 21.2539 44.1931C21.422 44.1083 21.5902 44.0235 21.7583 43.9387C21.6743 43.6844 21.5902 43.3452 21.5061 43.0909C21.338 42.8365 21.17 42.5822 21.0019 42.4126C20.8338 42.2431 20.6657 41.9887 20.4976 41.8192C20.3295 41.6496 20.1613 41.48 19.9932 41.3952L20.4135 40.2083C20.8337 40.6322 21.0859 40.9713 21.3381 41.2257C21.5902 41.48 21.7583 41.7344 21.9264 41.9887C22.1785 42.4126 22.3466 42.9213 22.3466 43.43L22.5147 43.2605C22.5987 43.1757 22.5988 43.0909 22.6828 43.0061L22.5147 40.1235L23.6914 39.53V43.1757C23.8595 43.2605 24.0276 43.2605 24.2798 43.2605H25.2883H27.4736L27.1374 41.5648L28.3141 41.1409C28.3141 41.3105 28.3981 41.48 28.3981 41.6496C28.3981 41.8191 28.4822 41.9887 28.4822 42.2431C28.4822 42.4974 28.5663 42.5822 28.5663 42.7518C28.5663 42.9213 28.5663 43.0061 28.5663 43.1757C28.5663 43.43 28.4822 43.6844 28.3981 43.8539C28.3141 44.0235 28.146 44.1931 27.9779 44.2778C27.8098 44.3626 27.5577 44.4474 27.3896 44.4474C27.1374 44.4474 26.8853 44.5322 26.6331 44.5322H24.2798C24.0276 44.5322 23.8595 44.5322 23.6074 44.4474C23.4393 44.3626 23.2712 44.2778 23.1871 44.1083C23.019 44.2778 22.935 44.4474 22.7669 44.5322C22.5988 44.7018 22.4307 44.7865 22.2626 44.9561C22.0945 45.0409 21.8423 45.2105 21.5902 45.2952C21.338 45.38 21.0858 45.4648 20.8337 45.4648L20.2454 44.4474ZM35.5423 40.1235L36.635 39.53V44.1083L35.5423 44.7018V40.1235ZM28.9865 40.1235L30.0791 39.53V44.1083L28.9865 44.7018V40.1235ZM37.8117 44.7018C37.7276 44.7018 37.5595 44.617 37.4755 44.5322C37.3914 44.4474 37.3074 44.2778 37.3074 44.1931C37.2234 44.0235 37.2233 43.7691 37.2233 43.5996V42.9213L38.1479 42.5822C38.1479 43.0909 38.2319 43.3452 38.484 43.3452H38.6522C38.7362 43.3452 38.8202 43.3452 38.9043 43.3452C38.9883 43.3452 39.0724 43.3452 39.1564 43.3452C39.2405 43.3452 39.3246 43.3452 39.4086 43.2605L39.0724 41.5648L40.165 40.8018L40.3331 42.3278C40.3331 42.4974 40.4172 42.7518 40.5012 42.9213C40.5853 43.0061 40.5853 43.1757 40.6694 43.2605L40.8374 43.43H41.0055H42.0141H44.1994L43.8632 41.7344L45.0399 41.3105C45.0399 41.48 45.1239 41.6496 45.1239 41.8192C45.1239 41.9887 45.2079 42.1583 45.2079 42.4126C45.2079 42.667 45.2921 42.7518 45.2921 42.9213C45.2921 43.0909 45.2921 43.1757 45.2921 43.3452C45.2921 43.5996 45.208 43.8539 45.1239 44.0235C45.0399 44.1931 44.8718 44.3626 44.7037 44.4474C44.5356 44.5322 44.2835 44.617 44.1154 44.617C43.8632 44.617 43.611 44.7018 43.3589 44.7018H41.0055C40.8374 44.7018 40.7533 44.7018 40.5852 44.7018C40.5012 44.7018 40.3332 44.7018 40.2491 44.617C40.1651 44.617 40.081 44.5322 39.9969 44.4474C39.9129 44.3626 39.8288 44.2778 39.7447 44.1931C39.6607 44.2778 39.5767 44.3626 39.4086 44.4474C39.2405 44.5322 39.1565 44.617 38.9884 44.617C38.8203 44.7018 38.7362 44.7018 38.5681 44.7018C38.4 44.7018 38.2319 44.7865 38.1479 44.7865C37.9798 44.7865 37.8957 44.7018 37.8117 44.7018ZM67.3969 44.7018C67.1448 44.7018 66.8086 44.7018 66.5564 44.617C66.3043 44.5322 66.1362 44.4474 65.8841 44.3626C65.716 44.2779 65.5479 44.1083 65.4638 43.8539C65.3798 43.5996 65.2957 43.3452 65.2957 43.0909C65.2957 43.0061 65.2957 42.9213 65.2957 42.7518C65.2957 42.5822 65.2957 42.4974 65.2957 42.4126C65.2957 42.2431 65.3797 42.1583 65.3797 41.9887L66.3043 41.8192C66.3043 41.9039 66.3043 41.9887 66.3043 42.0735C66.3043 42.1583 66.3043 42.2431 66.3043 42.3278C66.3043 42.4974 66.3043 42.5822 66.3884 42.7518C66.3884 42.8365 66.4724 42.9213 66.5564 43.0061C66.6405 43.0909 66.8086 43.1757 66.8926 43.1757C67.0607 43.1757 67.3128 43.2605 67.4809 43.2605H69.4141L69.0779 41.48L70.2546 41.1409C70.2546 41.3952 70.3386 41.5648 70.3386 41.7344C70.3386 41.9039 70.4227 42.0735 70.4227 42.2431C70.4227 42.4126 70.5068 42.5822 70.5068 42.667C70.5068 42.8365 70.5068 43.0061 70.5068 43.0909C70.5068 43.5996 70.2546 44.0235 69.8344 44.2778C69.5822 44.3626 69.33 44.5322 69.1619 44.5322C68.9098 44.617 68.5736 44.617 68.3214 44.617L67.3969 44.7018ZM55.2098 44.7018H55.0417C54.7896 44.7018 54.4534 44.7018 54.2012 44.617C53.9491 44.5322 53.781 44.4474 53.5288 44.3626C53.3607 44.2779 53.1926 44.1083 53.1086 43.8539C53.0245 43.5996 52.9405 43.3452 52.9405 43.0909C52.9405 43.0061 52.9405 42.8365 52.9405 42.7518C52.9405 42.5822 53.0245 42.4974 53.0245 42.3278C53.0245 42.1583 53.1086 41.9887 53.1086 41.9039L54.0331 41.7344C54.0331 41.8192 54.0331 41.9039 53.9491 41.9887C53.9491 42.0735 53.9491 42.1583 53.9491 42.2431C53.9491 42.3279 53.9491 42.3278 53.9491 42.4126C53.9491 42.667 54.0331 42.9213 54.2012 43.0061C54.4534 43.1757 54.7896 43.2605 55.1258 43.1757C55.2098 43.1757 55.3779 43.1757 55.546 43.1757C55.7141 43.1757 55.8822 43.1757 56.1343 43.1757C56.3865 43.1757 56.5546 43.1757 56.7227 43.1757C56.8908 43.1757 57.0589 43.1757 57.227 43.0909C57.1429 42.9213 56.9748 42.7518 56.8908 42.4974C56.7227 42.3278 56.6386 42.0735 56.4705 41.9039C56.3024 41.7344 56.1344 41.48 55.9663 41.3105L56.3865 39.8692L59.1602 39.2757L58.8239 40.5474L57.0589 40.8018C57.143 40.8865 57.227 41.0561 57.3951 41.2257C57.4791 41.3952 57.6472 41.5648 57.8153 41.7344C57.9834 41.9039 58.0674 42.0735 58.2355 42.2431C58.4036 42.4126 58.4877 42.5822 58.6558 42.667C58.8239 42.7518 58.9079 42.9213 59.076 43.0061C59.1601 43.0909 59.3282 43.0909 59.4963 43.0909H60.5049H62.6902L62.354 41.3952L63.5307 40.9713C63.5307 41.1409 63.6147 41.3105 63.6147 41.48C63.6147 41.6496 63.6987 41.8191 63.6987 42.0735C63.6987 42.3278 63.7829 42.4126 63.7829 42.5822C63.7829 42.7518 63.7829 42.8365 63.7829 43.0061C63.7829 43.2605 63.6987 43.5148 63.6147 43.6844C63.5307 43.8539 63.3626 44.0235 63.1945 44.1083C63.0264 44.1931 62.7743 44.2778 62.6062 44.2778C62.354 44.2778 62.1018 44.3626 61.8497 44.3626H59.4963C59.3282 44.3626 59.2441 44.3626 59.076 44.2778C58.992 44.1931 58.824 44.1931 58.7399 44.1083C58.6559 44.0235 58.4877 43.9387 58.4037 43.7691C58.3196 43.6844 58.2356 43.5148 58.0675 43.43C57.9834 43.5996 57.8994 43.7692 57.7313 43.9387C57.5632 44.1083 57.3951 44.1931 57.227 44.2778C57.0589 44.3626 56.8068 44.4474 56.6387 44.4474C56.3865 44.4474 56.1344 44.5322 55.9663 44.5322H55.7982C55.7141 44.5322 55.6301 44.5322 55.546 44.5322L55.2098 44.7018ZM86.6442 44.617H85.6356C85.3835 44.617 85.2153 44.617 85.0472 44.617C84.8791 44.617 84.7951 44.5322 84.627 44.5322C84.5429 44.4474 84.3748 44.3626 84.2908 44.2778C84.2067 44.1931 84.1227 44.0235 84.0387 43.8539L83.7865 44.4474C83.5343 44.4474 83.2822 44.3626 83.1142 44.3626C82.9461 44.3626 82.7779 44.2778 82.6098 44.1931C82.4417 44.1083 82.3577 44.0235 82.2737 43.8539C82.1896 43.6844 82.1895 43.5148 82.1895 43.3452C82.1895 43.0909 82.2736 42.8365 82.3577 42.667C82.4417 42.4974 82.6098 42.2431 82.7779 42.1583C82.946 41.9887 83.1141 41.9039 83.2822 41.7344C83.4503 41.6496 83.6184 41.5648 83.7025 41.48V40.717L84.8792 40.9713V43.3452H86.5601H88.7454L88.4092 41.6496L89.5859 41.2257C89.5859 41.3952 89.6699 41.5648 89.6699 41.7344C89.6699 41.9039 89.7539 42.0735 89.7539 42.3278C89.7539 42.5822 89.8381 42.667 89.8381 42.8365C89.8381 43.0061 89.8381 43.0909 89.8381 43.2605C89.8381 43.5148 89.754 43.7692 89.6699 43.9387C89.5859 44.1083 89.4178 44.2779 89.2497 44.3626C89.0816 44.4474 88.8295 44.5322 88.6614 44.5322C88.4092 44.5322 88.1571 44.617 87.9049 44.617H86.6442ZM83.1142 43.0061L83.9546 43.0909V42.3278L83.1142 43.0061ZM32.9368 44.617C32.7687 44.617 32.5166 44.617 32.3485 44.5322C32.1804 44.4474 32.0963 44.3626 32.0123 44.2778C31.9282 44.1931 31.8442 44.0235 31.8442 43.8539C31.8442 43.6844 31.7601 43.5148 31.7601 43.3452V43.0909C31.7601 43.0061 31.7601 42.9213 31.7601 42.8365L32.6006 42.4974V42.667C32.6006 42.8365 32.6006 42.9213 32.7687 43.0061C32.9368 43.0909 33.0209 43.1757 33.189 43.0909C33.273 43.0909 33.357 43.0909 33.4411 43.0909C33.5251 43.0909 33.6092 43.0909 33.6933 43.0909C33.7773 43.0909 33.8614 43.0909 33.9454 43.0061C34.0295 43.0061 34.0294 43.0061 34.1135 42.9213C34.0294 42.7518 34.0295 42.667 33.9454 42.4974C33.8614 42.3278 33.7773 42.2431 33.6933 42.0735C33.6092 41.9887 33.5251 41.8192 33.357 41.7344C33.273 41.6496 33.1049 41.5648 32.9368 41.5648L33.273 40.5474C33.273 40.4626 33.357 40.3778 33.4411 40.3778L33.6092 40.2931C33.8614 40.2931 34.0294 40.3779 34.1975 40.5474C34.3656 40.717 34.5337 40.9713 34.6178 41.1409C34.7018 41.3952 34.87 41.6496 34.87 41.9887C34.954 42.2431 34.954 42.4974 34.954 42.8365C34.954 43.0909 34.954 43.2605 34.7859 43.5148C34.7019 43.6844 34.6178 43.8539 34.4497 44.0235C34.2816 44.1931 34.1135 44.2778 33.8613 44.2778C33.6092 44.3626 33.3571 44.3626 33.1049 44.3626L32.9368 44.617ZM11.8405 42.3278L12.2607 41.3952L13.1853 41.8192L12.849 42.7518L11.8405 42.3278ZM101.269 40.6322L101.689 39.6148L102.613 40.0387L102.95 39.2757L103.958 39.7844L103.538 40.8018L102.613 40.3778L102.277 41.1409L101.269 40.6322ZM26.2129 40.6322L26.6331 39.6996L27.5576 40.1235L27.2215 41.0561L26.2129 40.6322ZM76.5583 40.2931L76.9785 39.3605L77.903 39.7844L77.5668 40.717L76.5583 40.2931ZM27.8938 39.1061C27.8938 39.0213 27.9779 38.9365 27.9779 38.8518C28.0619 38.767 28.062 38.5974 28.146 38.5126C28.2301 38.4278 28.3141 38.3431 28.3141 38.2583C28.3981 38.1735 28.3982 38.1735 28.4822 38.1735H28.6503C28.7344 38.1735 28.8184 38.2583 28.9025 38.2583C28.9865 38.2583 29.1546 38.3431 29.2386 38.3431C29.4067 38.3431 29.4908 38.3431 29.6589 38.3431C29.827 38.3431 30.0792 38.3431 30.2473 38.2583C30.4994 38.2583 30.6675 38.1735 30.8356 38.0887L30.6675 39.0213C30.4994 39.1061 30.3312 39.1909 30.0791 39.2757C29.827 39.3605 29.6589 39.3605 29.4068 39.3605C29.2387 39.3605 29.0706 39.3605 28.9025 39.3605C28.7344 39.3605 28.6503 39.2757 28.4822 39.2757L28.3981 39.6996L27.8938 39.1061Z" fill="#5D597A"/>
<path d="M89.754 36.3931C89.1656 36.3931 88.7454 35.9691 88.7454 35.3757C88.7454 34.7822 89.1656 34.3583 89.754 34.3583H96.8141C97.4025 34.3583 97.8228 34.7822 97.8228 35.3757C97.8228 35.9691 97.4025 36.3931 96.8141 36.3931H89.754ZM34.87 36.3931C34.2816 36.3931 33.8613 35.9691 33.8613 35.3757C33.8613 34.7822 34.2816 34.3583 34.87 34.3583H41.9301C42.5185 34.3583 42.9387 34.7822 42.9387 35.3757C42.9387 35.9691 42.5185 36.3931 41.9301 36.3931H34.87ZM86.2239 31.73C85.6356 31.73 85.2154 31.3061 85.2154 30.7126C85.2154 30.1191 85.6356 29.6952 86.2239 29.6952H94.2926C96.1417 29.78 97.7387 28.2539 97.8228 26.3887C97.8228 26.3039 97.8228 26.2191 97.8228 26.1344V21.4713C97.8228 20.8778 98.243 20.4539 98.8313 20.4539C99.4196 20.4539 99.8399 20.8778 99.8399 21.4713V26.1344C100.008 29.1018 97.6546 31.6452 94.7129 31.8148C94.5448 31.8148 94.4607 31.8148 94.2926 31.8148L86.2239 31.73ZM55.2098 31.73C54.6215 31.73 54.2013 31.3061 54.2013 30.7126C54.2013 30.1191 54.6215 29.6952 55.2098 29.6952H80.7608C81.097 29.6952 83.7025 29.6104 84.2067 26.9822C84.2908 26.3887 84.7951 26.0496 85.2994 26.0496C85.8878 26.1344 86.2239 26.6431 86.2239 27.1518V27.2365C85.8037 29.8648 83.4503 31.8148 80.7608 31.73H55.2098ZM46.2166 31.73C45.6283 31.73 45.208 31.3061 45.208 30.7126C45.208 30.1191 45.6283 29.6952 46.2166 29.6952H49.7466C51.5957 29.78 53.1927 28.2539 53.2768 26.3887C53.2768 26.3039 53.2768 26.2191 53.2768 26.0496C53.2768 24.0996 51.6798 22.4887 49.7466 22.4887H43.9472V26.0496C43.9472 27.9996 42.7706 31.73 38.4 31.73H34.87C34.2816 31.73 33.8613 31.3061 33.8613 30.7126C33.8613 30.1191 34.2816 29.6952 34.87 29.6952H38.4C40.2491 29.78 41.8461 28.3387 41.9301 26.3887C41.9301 26.3039 41.9301 26.2191 41.9301 26.0496V20.3691H49.7466C52.8564 20.3691 55.2938 22.9126 55.2938 26.0496C55.2938 27.9996 54.1172 31.73 49.7466 31.73H46.2166ZM23.8596 31.73V13.2474C23.8596 12.6539 24.2798 12.23 24.8681 12.23C25.4565 12.23 25.8767 12.6539 25.8767 13.2474V29.6952H29.4068C31.2559 29.78 32.8528 28.3387 32.9368 26.3887C32.9368 26.3039 32.9368 26.2191 32.9368 26.0496V22.4887C32.9368 21.8952 33.3571 21.4713 33.9455 21.4713C34.5338 21.4713 34.954 21.8952 34.954 22.4887V26.0496C34.954 27.9996 33.7773 31.73 29.4068 31.73H23.8596ZM12.3448 31.73C11.7564 31.73 11.3362 31.3061 11.3362 30.7126C11.3362 30.1191 11.7564 29.6952 12.3448 29.6952H15.8749C19.2369 29.6952 19.4049 26.4735 19.4049 26.1344V22.5735C19.4049 21.98 19.8251 21.5561 20.4135 21.5561C21.0018 21.5561 21.4221 21.98 21.4221 22.5735V26.1344C21.4221 28.0844 20.2455 31.8148 15.8749 31.8148L12.3448 31.73ZM102.025 29.6952V13.2474C102.025 12.6539 102.445 12.23 103.034 12.23C103.622 12.23 104.042 12.6539 104.042 13.2474V29.6952C104.042 30.2887 103.622 30.7126 103.034 30.7126C102.529 30.7126 102.025 30.2887 102.025 29.6952ZM33.9455 16.8931C33.3571 16.8931 32.9368 16.4691 32.9368 15.8757V13.3322C32.9368 12.7387 33.3571 12.3148 33.9455 12.3148C34.5338 12.3148 34.954 12.7387 34.954 13.3322V15.8757C34.87 16.3844 34.4498 16.8083 33.9455 16.8931Z" fill="#38A063"/>
<path d="M114.212 34.6974C113.708 33.0865 113.54 31.3909 113.54 29.6952C114.128 28.8474 114.801 27.9996 115.557 27.2365C116.061 26.7278 116.566 26.2192 117.07 25.7105C124.886 18.8431 136.569 18.8431 144.47 25.7105C144.974 26.2192 145.563 26.6431 145.983 27.2365C146.739 27.9996 147.328 28.8474 148 29.6952C146.991 31.1365 145.815 32.4931 144.47 33.68C139.343 38.1735 132.283 39.8692 125.643 38.1735C124.802 37.9192 124.382 37.1561 124.55 36.3083C124.634 36.0539 124.718 35.7996 124.971 35.63C125.307 35.2909 125.895 35.1213 126.399 35.2061C132.871 36.9018 139.763 34.6974 144.218 29.6952C137.662 22.2344 126.399 21.4713 119.003 28.0844C118.415 28.5931 117.91 29.1018 117.406 29.6952C117.154 30.0344 116.818 30.3735 116.566 30.7126C116.65 31.73 116.818 32.7474 117.07 33.68C118.751 39.8692 124.382 44.1931 130.77 44.1931C134.048 44.1931 137.326 43.0061 139.847 40.8865C140.436 40.3778 141.276 40.4626 141.864 40.9713C142.453 41.5648 142.453 42.5822 141.864 43.1757L141.78 43.2605C138.671 45.8887 134.804 47.2452 130.77 47.2452C123.121 47.2452 116.398 42.0735 114.212 34.6974ZM129.005 30.967C128.333 30.967 127.744 30.3735 127.744 29.6952C127.744 29.017 128.333 28.4235 129.005 28.4235H132.451C133.123 28.4235 133.712 29.017 133.712 29.6952C133.712 30.3735 133.123 30.967 132.451 30.967H129.005ZM140.856 19.4365C140.352 18.9278 140.352 18.1648 140.856 17.6561L143.293 15.1126C143.798 14.6039 144.554 14.6039 145.058 15.1126C145.563 15.6213 145.563 16.3844 145.058 16.8931L142.621 19.4365C142.201 19.9452 141.36 19.9452 140.856 19.4365ZM118.835 19.4365L116.398 16.8931C115.893 16.3844 115.893 15.6213 116.398 15.1126C116.902 14.6039 117.658 14.6039 118.163 15.1126L120.6 17.6561C121.104 18.1648 121.104 18.9278 120.6 19.4365C120.18 19.9452 119.423 19.9452 118.835 19.4365C118.919 19.4365 118.919 19.4365 118.835 19.4365ZM129.509 13.9257V10.3648C129.425 9.68654 130.014 9.09307 130.686 9.00828C131.358 8.9235 131.947 9.51698 132.031 10.1952C132.031 10.28 132.031 10.28 132.031 10.3648V13.9257C132.115 14.6039 131.526 15.1974 130.854 15.2822C130.182 15.367 129.593 14.7735 129.509 14.0952C129.509 14.0105 129.509 14.0105 129.509 13.9257Z" fill="#38A063"/>
</g>
<defs>
<clipPath id="clip0_11177_31241">
<rect width="137" height="39" fill="white" transform="translate(11 9)"/>
</clipPath>
</defs>
</svg>
