<svg width="84" height="24" viewBox="0 0 84 24" fill="none" xmlns="http://www.w3.org/2000/svg">
<g clip-path="url(#clip0_11177_31249)">
<path d="M83.197 9.87319H64.9893C64.0056 9.87319 63.207 9.07533 63.207 8.09273V5.94011C63.207 5.68308 62.9978 5.47424 62.7405 5.47424H62.5636H58.7388C58.4815 5.47424 58.2723 5.68308 58.2723 5.94011V8.10076C58.2723 9.08069 57.4763 9.87587 56.4953 9.87587H55.4071C54.4261 9.87587 53.6301 9.08069 53.6301 8.10076V5.94011C53.6301 5.68308 53.4209 5.47424 53.1636 5.47424H49.2289C48.9716 5.47424 48.7625 5.68308 48.7625 5.94011V8.09273C48.7625 9.07533 47.9638 9.87319 46.9802 9.87319H31.1338C30.8739 9.87319 30.6621 10.0847 30.6621 10.3444V12.2748C30.6621 13.576 31.7182 14.6282 33.0181 14.6282H46.4386C48.272 14.6282 49.9391 13.9268 51.1963 12.7835C52.4534 13.9241 54.1179 14.6282 55.9513 14.6282C57.8006 14.6282 59.4813 13.9134 60.741 12.7541C62.0035 13.9134 63.6813 14.6282 65.5335 14.6282H81.3154C82.6181 14.6282 83.6714 13.5733 83.6714 12.2748V10.3444C83.6714 10.0847 83.4595 9.87319 83.1996 9.87319H83.197Z" fill="#0047FF"/>
<path d="M60.2524 16.2749H53.8491C53.6667 16.2749 53.5193 16.4221 53.5193 16.6042V19.4824C53.5193 19.6644 53.6667 19.8118 53.8491 19.8118H58.4083C59.6199 19.8118 60.6035 18.8291 60.6035 17.619V16.6229C60.6035 16.4301 60.4454 16.2722 60.2524 16.2722V16.2749Z" fill="#0047FF"/>
<path d="M17.7353 16.8425H11.214C11.0317 16.8425 10.8843 16.9897 10.8843 17.1718V19.9054C10.8843 20.1678 11.096 20.3794 11.3614 20.3794H14.3178V23.0004C14.3178 23.1933 14.4733 23.3486 14.6663 23.3486H15.607C16.9124 23.3486 17.9685 22.291 17.9685 20.9898V17.0727C17.9685 16.9442 17.8639 16.8425 17.7379 16.8425H17.7353Z" fill="#0047FF"/>
<path d="M43.4428 16.5992H40.6178C40.4247 16.5992 40.2693 16.7545 40.2693 16.9473V19.6621C40.2693 19.9246 40.4811 20.1361 40.7438 20.1361H43.5715C43.7645 20.1361 43.92 19.9808 43.92 19.788V17.0758C43.92 16.8134 43.7055 16.5992 43.4428 16.5992Z" fill="#0047FF"/>
<path d="M21.1279 9.8736H0.644587C0.381914 9.8736 0.170166 10.0851 0.170166 10.3475V12.2752C0.170166 13.5764 1.22622 14.6286 2.52619 14.6286H21.1279C21.3932 14.6286 21.6049 14.4144 21.6049 14.1521V10.3528C21.6049 10.0878 21.3904 9.87628 21.1279 9.87628V9.8736Z" fill="#0047FF"/>
<path d="M28.0245 0.631256H24.2157C23.953 0.631256 23.7385 0.845447 23.7385 1.10783V14.1521C23.7385 14.4144 23.953 14.6286 24.2157 14.6286H26.1401C27.4428 14.6286 28.4989 13.5737 28.4989 12.2725V1.10783C28.4989 0.845447 28.2871 0.631256 28.0217 0.631256H28.0245Z" fill="#0047FF"/>
</g>
<defs>
<clipPath id="clip0_11177_31249">
<rect width="83.5066" height="22.869" fill="white" transform="translate(0.17392 0.630951)"/>
</clipPath>
</defs>
</svg>
