<svg width="161" height="56" viewBox="0 0 161 56" fill="none" xmlns="http://www.w3.org/2000/svg">
<g opacity="0.67" clip-path="url(#clip0_11177_31183)">
<path d="M64.3043 29.7498H35.595C33.5902 29.7498 31.9645 28.1097 31.9645 26.087V14.6988C31.9645 14.3133 31.654 14 31.2719 14H29.1926C28.8105 14 28.5 14.3133 28.5 14.6988V26.0509C28.5 29.9173 31.5381 33.2466 35.6079 33.2466H64.3043C64.6864 33.2466 64.997 32.9333 64.997 32.5478V30.45C64.997 30.0631 64.6864 29.7498 64.3043 29.7498Z" fill="#394C3E"/>
<path d="M74.3487 22.7664H76.4151C76.7958 22.7664 77.1035 22.456 77.1035 22.072V19.9872C77.1035 19.6032 76.7958 19.2928 76.4151 19.2928H74.3487C73.9681 19.2928 73.6604 19.6032 73.6604 19.9872V22.072C73.6604 22.456 73.9681 22.7664 74.3487 22.7664Z" fill="#394C3E"/>
<path d="M64.2257 35.0036H61.4538H58.6819C58.2998 35.0036 57.9893 35.3169 57.9893 35.7024V37.8001C57.9893 38.1856 58.2998 38.4989 58.6819 38.4989H61.4538H64.2257C64.6078 38.4989 64.9183 38.1856 64.9183 37.8001V35.7024C64.9183 35.3169 64.6078 35.0036 64.2257 35.0036Z" fill="#394C3E"/>
<path d="M97.1236 35.0209L91.0503 35.0123C89.044 35.0123 87.5013 36.6524 87.5013 38.6765V41.2998C87.5013 41.6853 87.7289 41.9986 88.1124 41.9986H90.1917C90.5738 41.9986 90.8843 41.6853 90.8843 41.2998V39.4431C90.8843 38.9277 91.2993 38.509 91.8102 38.509H97.1236C97.5057 38.509 97.8162 38.1957 97.8162 37.8102V35.7197C97.8162 35.3342 97.5057 35.0209 97.1236 35.0209Z" fill="#394C3E"/>
<path d="M37.3595 27.9942H42.3896L42.3882 27.9856H43.3899C43.772 27.9856 44.0825 27.6723 44.0825 27.2868V25.1962C44.0825 24.8108 43.772 24.4975 43.3899 24.4975H41.9073H40.9815H38.118C37.6071 24.4975 37.1921 24.0788 37.1921 23.5634V21.7067C37.1921 21.3212 36.8816 21.0079 36.4995 21.0079H34.4216C34.0395 21.0079 33.729 21.3212 33.729 21.7067V24.33C33.7276 26.3541 35.3532 27.9942 37.3595 27.9942Z" fill="#394C3E"/>
<path d="M97.1221 24.5148H95.0428C94.6607 24.5148 94.3502 24.8281 94.3502 25.2136V26.0957C94.3502 28.1184 92.7245 29.7585 90.7197 29.7585H87.6444C87.6358 28.9702 87.5385 27.9423 87.2566 27.2622C86.7672 26.0769 85.7955 25.1905 84.5991 24.7617C82.4168 23.9792 80.007 25.1472 79.2342 27.359C79.0754 27.8123 78.9952 28.2844 78.9952 28.7637C78.9952 29.2546 79.0682 29.7397 79.2342 30.206C79.6578 31.4173 80.6023 32.5666 81.7972 32.9954C82.5327 33.2581 83.3885 33.2668 84.1727 33.2596C84.084 35.2028 82.4984 36.752 80.5508 36.752H79.6879C79.3058 36.752 78.9952 37.0653 78.9952 37.4508V39.4951C78.9952 39.8806 79.2643 40.1405 79.6893 40.1968C80.1486 40.2574 80.6009 40.2473 80.6009 40.2473C84.2858 40.2675 87.6472 37.1288 87.6472 33.1542L90.7082 33.2538C94.5405 33.2538 97.8161 30.105 97.8161 26.0813V25.2136C97.8161 24.8281 97.5056 24.5148 97.1221 24.5148ZM83.2969 30.4385C82.4512 30.4385 81.7657 29.7469 81.7657 28.8937C81.7657 28.0404 82.4512 27.3489 83.2969 27.3489C84.1427 27.3489 84.8281 28.0404 84.8281 28.8937C84.8267 29.7469 84.1427 30.4385 83.2969 30.4385Z" fill="#394C3E"/>
<path d="M125.824 25.3536H111.358C111.015 25.3536 110.735 25.0721 110.735 24.7256V23.3728C110.735 23.0263 111.015 22.7448 111.358 22.7448H125.824C126.168 22.7448 126.447 23.0263 126.447 23.3728V24.7256C126.447 25.0721 126.168 25.3536 125.824 25.3536Z" fill="#007F48"/>
<path d="M125.392 42H111.856C107.931 42 104.748 38.7891 104.748 34.8289V21.1725C104.748 17.2123 107.931 14.0014 111.856 14.0014H125.392C129.317 14.0014 132.5 17.2123 132.5 21.1725V34.8289C132.5 38.7891 129.317 42 125.392 42ZM129.034 34.8361V21.1624C129.034 19.1383 127.407 17.4967 125.401 17.4967H111.847C109.841 17.4967 108.214 19.1383 108.214 21.1624V34.8361C108.214 36.8603 109.841 38.5018 111.847 38.5018H125.401C127.407 38.5018 129.034 36.8603 129.034 34.8361Z" fill="#007F48"/>
<path d="M111.946 30.4746C113.144 33.6884 116.389 35.6273 119.847 35.0787C120.216 35.0195 120.438 34.6268 120.336 34.263L120.053 33.1686C119.981 32.8308 119.675 32.6503 119.337 32.7023C117.378 33.0026 115.163 32.0353 114.199 29.6805C114.075 29.3788 113.742 29.2214 113.43 29.3095L112.373 29.604C112.003 29.7094 111.812 30.1122 111.946 30.4746Z" fill="#007F48"/>
<path d="M76.438 24.5148H74.3544C73.9724 24.5148 73.6618 24.8281 73.6618 25.2136V26.0957C73.6618 28.1184 72.0362 29.7585 70.0313 29.7585H67.4254C67.0433 29.7585 66.7328 30.0718 66.7328 30.4573V32.555C66.7328 32.9405 67.0433 33.2538 67.4254 33.2538H70.0242C73.8894 33.2538 77.1321 30.1136 77.1321 26.0827V25.2136C77.1306 24.8281 76.8201 24.5148 76.438 24.5148Z" fill="#394C3E"/>
</g>
<defs>
<clipPath id="clip0_11177_31183">
<rect width="104" height="28" fill="white" transform="translate(28.5 14)"/>
</clipPath>
</defs>
</svg>
