<svg width="40" height="40" viewBox="0 0 40 40" fill="none" xmlns="http://www.w3.org/2000/svg">
    <path d="M22.31 39.093C22.7453 39.093 23.0633 38.7749 23.147 38.3229C24.3356 29.1488 25.6247 27.7593 34.6983 26.7548C35.1671 26.7046 35.4852 26.353 35.4852 25.9178C35.4852 25.4825 35.1671 25.1476 34.6983 25.0807C25.6247 24.0762 24.3356 22.6867 23.147 13.5126C23.0633 13.0606 22.7453 12.7593 22.31 12.7593C21.8747 12.7593 21.5566 13.0606 21.4897 13.5126C20.3011 22.6867 18.9953 24.0762 9.93827 25.0807C9.45284 25.1476 9.13477 25.4825 9.13477 25.9178C9.13477 26.353 9.45284 26.7046 9.93827 26.7548C18.9785 27.9434 20.2341 29.1656 21.4897 38.3229C21.5566 38.7749 21.8747 39.093 22.31 39.093Z" fill="#3B82F6"/>
    <path d="M19.0622 9.04246C19.2631 9.04246 19.3636 8.92525 19.4138 8.74111C19.9327 5.94532 19.8993 5.87839 22.8122 5.32589C23.0131 5.29246 23.1303 5.17525 23.1303 4.97432C23.1303 4.77346 23.0131 4.65625 22.8122 4.62275C19.916 4.03689 19.9997 3.96989 19.4138 1.20761C19.3636 1.02346 19.2631 0.90625 19.0622 0.90625C18.8613 0.90625 18.7609 1.02346 18.7106 1.20761C18.1247 3.96989 18.2251 4.03689 15.3122 4.62275C15.1281 4.65625 14.9941 4.77346 14.9941 4.97432C14.9941 5.17525 15.1281 5.29246 15.3122 5.32589C18.2251 5.91189 18.1916 5.94532 18.7106 8.74111C18.7609 8.92525 18.8613 9.04246 19.0622 9.04246Z" fill="#A855F7"/>
    <path d="M10.959 20.5603C11.2771 20.5603 11.4947 20.3593 11.5282 20.0581C12.1309 15.5881 12.2815 15.5881 16.9021 14.7009C17.2035 14.6506 17.421 14.4498 17.421 14.1317C17.421 13.8303 17.2035 13.6127 16.9021 13.5625C12.2815 12.9263 12.1141 12.7756 11.5282 8.22205C11.4947 7.92077 11.2771 7.70312 10.959 7.70312C10.6577 7.70312 10.44 7.92077 10.4065 8.23884C9.8541 12.7254 9.61967 12.7087 5.03267 13.5625C4.73131 13.6295 4.51367 13.8303 4.51367 14.1317C4.51367 14.4665 4.73131 14.6506 5.0996 14.7009C9.65317 15.4375 9.8541 15.5547 10.4065 20.0246C10.44 20.3593 10.6577 20.5603 10.959 20.5603Z" fill="#6366F1"/>
</svg>
