<svg width="24" height="24" viewBox="0 0 24 24" fill="none" xmlns="http://www.w3.org/2000/svg">
<path d="M12.0002 1.59335C2.72562 1.59035 -1.91968 12.7975 4.63656 19.3532C6.09205 20.8085 7.9466 21.7997 9.96565 22.2014C11.9847 22.6031 14.0776 22.3972 15.9796 21.6098C17.8816 20.8224 19.5073 19.4889 20.6511 17.7779C21.7948 16.0669 22.4053 14.0553 22.4054 11.9975C22.4054 6.25285 17.7481 1.59535 12.0002 1.59335ZM6.10629 6.7829C6.60754 4.18463 10.0012 3.48855 11.485 5.67979C12.9687 7.87002 11.0627 10.7623 8.46345 10.2623C8.08007 10.1887 7.71495 10.0402 7.38897 9.82551C7.06299 9.61078 6.78254 9.33395 6.56363 9.01083C6.34473 8.68771 6.19167 8.32463 6.11319 7.94235C6.03472 7.56008 6.03237 7.16609 6.10629 6.7829ZM10.4304 15.7719C9.92618 18.3691 6.5315 19.0602 5.05077 16.868C3.57003 14.6757 5.47798 11.7874 8.07726 12.2885C8.4607 12.3625 8.82576 12.5114 9.1516 12.7266C9.47743 12.9418 9.75763 13.2191 9.97618 13.5426C10.1947 13.8661 10.3473 14.2295 10.4253 14.612C10.5032 14.9945 10.505 15.3887 10.4304 15.7719ZM11.6911 13.3666C10.5385 13.1436 10.2283 11.6394 11.1998 10.9794C12.1703 10.3193 13.4569 11.1594 13.2408 12.3135C13.2088 12.4845 13.1432 12.6475 13.0479 12.7932C12.9526 12.9388 12.8295 13.0641 12.6855 13.162C12.5416 13.2599 12.3797 13.3283 12.2092 13.3634C12.0387 13.3986 11.863 13.3996 11.6921 13.3666H11.6911ZM17.8921 17.205C17.3909 19.8033 13.9972 20.4984 12.5135 18.3081C11.0287 16.1169 12.9347 13.2256 15.535 13.7246C15.9184 13.7983 16.2837 13.9467 16.6097 14.1615C16.9358 14.3763 17.2163 14.6532 17.4352 14.9765C17.6541 15.2997 17.8071 15.6629 17.8855 16.0453C17.9639 16.4277 17.9662 16.8218 17.8921 17.205ZM15.9241 11.7024C13.3249 11.2014 12.6295 7.80601 14.8216 6.32186C17.0127 4.8387 19.9051 6.7439 19.4059 9.34218C19.3327 9.72587 19.1845 10.0914 18.9698 10.4178C18.7552 10.7441 18.4782 11.025 18.1548 11.2442C17.8314 11.4634 17.4679 11.6168 17.0851 11.6954C16.7024 11.774 16.3078 11.7764 15.9241 11.7024ZM13.59 23.2657L15.8551 23.8757C16.8076 24.1283 17.8214 23.9926 18.6737 23.4982C19.5261 23.0038 20.1471 22.1914 20.4004 21.2394L21.0407 18.8372C19.2379 21.2376 16.5598 22.8292 13.589 23.2657H13.59ZM21.2368 3.59857L18.8726 2.9695C20.0674 3.88814 21.0677 5.03486 21.8155 6.34309C22.5633 7.65131 23.0437 9.09499 23.2288 10.5903L23.8791 8.13105C24.128 7.17968 23.9894 6.16849 23.4937 5.31909C22.998 4.46968 22.1857 3.85134 21.2348 3.59957L21.2368 3.59857ZM0.665596 13.8097L0.124328 15.8499C-0.1284 16.802 0.00744345 17.8154 0.501993 18.6674C0.996542 19.5194 1.80932 20.1402 2.76163 20.3934L4.86968 20.9554C2.6191 19.1867 1.11771 16.6353 0.664595 13.8097H0.665596ZM10.3554 0.701259L8.1473 0.125197C7.67535 -0.000472 7.18326 -0.0319317 6.69914 0.0326166C6.21503 0.0971649 5.74838 0.256455 5.32589 0.501383C4.9034 0.74631 4.53333 1.07207 4.23686 1.46004C3.94039 1.84802 3.72331 2.2906 3.59805 2.76248L3.04677 4.8447C4.86539 2.5821 7.48033 1.09983 10.3564 0.701259H10.3554Z" fill="#19191A" fill-opacity="0.5"/>
</svg>
